<svg width="63" height="63" viewBox="0 0 63 63" fill="none" xmlns="http://www.w3.org/2000/svg">
<path d="M2.49805 2.44043L6.31297 2.44043C7.03152 2.44043 7.3908 2.44043 7.67992 2.57256C7.93471 2.689 8.15063 2.87627 8.30194 3.11203C8.47363 3.37957 8.52444 3.73524 8.62606 4.44656L10.0084 14.1233M10.0084 14.1233L13.0807 36.7045C13.4706 39.57 13.6655 41.0028 14.3506 42.0813C14.9542 43.0317 15.8197 43.7873 16.8427 44.2573C18.0037 44.7908 19.4497 44.7908 22.3417 44.7908L47.3368 44.7908C50.0897 44.7908 51.4662 44.7908 52.5911 44.2954C53.5829 43.8587 54.4337 43.1547 55.0483 42.2621C55.7453 41.2497 56.0029 39.8976 56.518 37.1933L60.3839 16.897C60.5652 15.9452 60.6559 15.4693 60.5245 15.0973C60.4093 14.771 60.1819 14.4962 59.8829 14.3219C59.542 14.1233 59.0576 14.1233 58.0886 14.1233L10.0084 14.1233ZM25.8637 57.934C25.8637 59.547 24.5561 60.8547 22.943 60.8547C21.33 60.8547 20.0223 59.547 20.0223 57.934C20.0223 56.3209 21.33 55.0132 22.943 55.0132C24.5561 55.0132 25.8637 56.3209 25.8637 57.934ZM49.2294 57.934C49.2294 59.547 47.9218 60.8547 46.3087 60.8547C44.6957 60.8547 43.388 59.547 43.388 57.934C43.388 56.3209 44.6957 55.0132 46.3087 55.0132C47.9218 55.0132 49.2294 56.3209 49.2294 57.934Z" stroke="#373737" stroke-width="4.20582" stroke-linecap="round" stroke-linejoin="round"/>
</svg>
